<svg xmlns="http://www.w3.org/2000/svg" xmlns:xlink="http://www.w3.org/1999/xlink" version="1.1" x="0px" y="0px" viewBox="0 0 100 125" enable-background="new 0 0 100 100" xml:space="preserve"><path fill="#000000" d="M53.25,94.027c0.006,0.003,0.012,0.004,0.018,0.006c0.063,0.03,0.133,0.05,0.208,0.05  c0.001,0,0.002,0.001,0.003,0.001l0,0l0,0l0,0l0,0c0.001,0,0.001,0,0.002,0c0.083,0,0.158-0.026,0.228-0.062  c0.015-0.008,0.027-0.015,0.042-0.024c0.006-0.004,0.013-0.002,0.019-0.006l43.181-30.734c0.012-0.008,0.017-0.021,0.027-0.029  c0.027-0.022,0.049-0.048,0.07-0.075c0.02-0.024,0.037-0.049,0.051-0.076c0.016-0.027,0.024-0.057,0.033-0.087  c0.01-0.033,0.018-0.065,0.021-0.1c0.001-0.014,0.008-0.026,0.008-0.04V33.45c0-0.019-0.009-0.033-0.011-0.052  c-0.002-0.025-0.003-0.05-0.01-0.075c-0.004-0.015-0.008-0.028-0.014-0.043c-0.01-0.026-0.023-0.049-0.037-0.073  c-0.009-0.015-0.011-0.031-0.021-0.046c-0.003-0.005-0.008-0.007-0.012-0.011c-0.008-0.012-0.018-0.021-0.027-0.033  c-0.02-0.021-0.043-0.037-0.066-0.056c-0.019-0.015-0.035-0.031-0.055-0.042c-0.006-0.004-0.008-0.009-0.014-0.012L46.777,6.539  c-0.022-0.012-0.047-0.013-0.07-0.021c-0.033-0.012-0.065-0.025-0.101-0.029c-0.031-0.004-0.061,0-0.091,0.002  c-0.033,0.002-0.066,0.002-0.099,0.011c-0.034,0.009-0.064,0.026-0.096,0.043c-0.021,0.011-0.045,0.015-0.066,0.029L3.051,37.265  c-0.004,0.003-0.006,0.008-0.01,0.011c-0.012,0.009-0.022,0.019-0.033,0.029c-0.021,0.019-0.037,0.042-0.055,0.064  c-0.015,0.02-0.032,0.035-0.043,0.056c-0.003,0.006-0.008,0.009-0.011,0.014c-0.003,0.007-0.003,0.014-0.006,0.021  c-0.011,0.023-0.016,0.049-0.023,0.073c-0.008,0.026-0.018,0.05-0.021,0.076c-0.002,0.015-0.003,0.028-0.004,0.043  c0,0.008-0.004,0.014-0.004,0.021v29.443c0,0.023,0.01,0.044,0.014,0.066c0.005,0.036,0.008,0.07,0.021,0.104  c0.011,0.031,0.028,0.057,0.045,0.084s0.031,0.055,0.053,0.078c0.024,0.026,0.052,0.046,0.081,0.066  c0.019,0.014,0.032,0.032,0.054,0.044l50.138,26.469C53.246,94.027,53.248,94.026,53.25,94.027z M22.821,26.347l2.524-0.403h2.584  l2.529,0.404l2.265,0.775l1.82,1.097l1.232,1.333l0.644,1.423v1.428l-0.624,1.425l-1.23,1.311l-1.802,1.14l-2.249,0.776l-2.52,0.445  h-2.605l-2.542-0.445l-2.226-0.776l-1.827-1.102l-1.229-1.309l-0.644-1.423v-1.452l0.603-1.421l1.249-1.31l1.804-1.14L22.821,26.347  z M34.566,40.059l-1.803,1.098l-2.246,0.818l-2.523,0.403h-2.607l-2.548-0.403L20.621,41.2l-1.827-1.102l-1.228-1.308l-0.645-1.444  v-1.513v-1.19l1.192,1.27c0.014,0.016,0.034,0.021,0.049,0.034c0.02,0.018,0.034,0.039,0.057,0.053l1.925,1.16  c0.012,0.008,0.027,0.005,0.04,0.011c0.02,0.01,0.034,0.025,0.054,0.032l2.318,0.809c0.015,0.006,0.03,0.004,0.045,0.008  c0.012,0.003,0.021,0.011,0.033,0.013l2.625,0.46c0.029,0.006,0.058,0.008,0.086,0.008c0,0,0,0,0,0h2.69c0,0,0,0,0,0  c0.028,0,0.057-0.002,0.086-0.008l2.604-0.46c0.011-0.002,0.02-0.009,0.03-0.012c0.015-0.004,0.031-0.003,0.046-0.008l2.341-0.809  c0.025-0.009,0.043-0.026,0.066-0.039c0.012-0.006,0.026-0.003,0.038-0.011l1.903-1.203c0.02-0.013,0.032-0.032,0.049-0.047  c0.016-0.014,0.034-0.02,0.048-0.034l1.169-1.246v2.701l-0.624,1.425L34.566,40.059z M16.738,28.949  c-0.021,0.022-0.032,0.051-0.048,0.076c-0.017,0.024-0.039,0.045-0.051,0.073l-0.678,1.597l0,0  c-0.007,0.017-0.005,0.036-0.011,0.053c-0.014,0.048-0.029,0.096-0.029,0.144v1.661v3.281v1.619c0,0.002,0.001,0.003,0.001,0.004  c0,0.033,0.013,0.066,0.02,0.1c0.007,0.032,0.009,0.066,0.022,0.096c0,0.002,0,0.003,0.001,0.005l0.722,1.618  c0.005,0.012,0.017,0.016,0.023,0.026c0.021,0.038,0.038,0.078,0.069,0.111l1.335,1.422c0.014,0.016,0.034,0.021,0.049,0.034  c0.02,0.018,0.034,0.039,0.057,0.053l1.925,1.16c0.012,0.008,0.027,0.005,0.04,0.011c0.02,0.01,0.034,0.025,0.054,0.032l2.318,0.809  c0.016,0.006,0.033,0.005,0.049,0.009c0.013,0.003,0.024,0.012,0.038,0.014l2.625,0.416c0.026,0.004,0.052,0.006,0.078,0.006l0,0  h2.69l0,0c0.026,0,0.053-0.002,0.079-0.006l2.604-0.416c0.015-0.003,0.026-0.012,0.041-0.016c0.017-0.004,0.034-0.003,0.051-0.009  l2.341-0.853c0.021-0.008,0.035-0.023,0.054-0.033c0.012-0.006,0.024-0.003,0.036-0.01l1.903-1.159  c0.021-0.013,0.034-0.033,0.052-0.049c0.017-0.014,0.037-0.02,0.052-0.036l1.334-1.422c0.032-0.034,0.05-0.075,0.071-0.114  c0.006-0.011,0.018-0.016,0.022-0.026l0.7-1.598c0-0.001,0-0.002,0.001-0.004c0.012-0.027,0.013-0.06,0.02-0.089  c0.008-0.035,0.021-0.07,0.021-0.105c0-0.001,0-0.002,0-0.003v-4.914c0-0.001,0-0.001,0-0.001v-0.007v-1.641  c0-0.002-0.001-0.004-0.001-0.006c0-0.032-0.013-0.063-0.02-0.095c-0.007-0.034-0.009-0.069-0.022-0.1  c-0.001-0.002-0.001-0.004-0.001-0.006l-0.722-1.597c-0.011-0.023-0.03-0.04-0.044-0.061c-0.015-0.024-0.024-0.052-0.044-0.073  l-1.335-1.443c-0.017-0.019-0.039-0.026-0.058-0.042c-0.019-0.015-0.031-0.034-0.052-0.047l-1.925-1.159  c-0.017-0.01-0.035-0.011-0.052-0.019c-0.016-0.007-0.027-0.02-0.044-0.025l-2.362-0.81c-0.013-0.005-0.026-0.002-0.04-0.005  c-0.015-0.004-0.027-0.014-0.043-0.017l-2.604-0.416c-0.014-0.002-0.026,0.003-0.039,0.002c-0.014-0.001-0.026-0.008-0.04-0.008  h-2.669c-0.014,0-0.025,0.007-0.039,0.008s-0.026-0.004-0.04-0.002l-2.603,0.416c-0.016,0.002-0.027,0.012-0.042,0.016  c-0.014,0.004-0.028,0.001-0.042,0.006l-2.025,0.7l18.375-13.053l-0.541,0.585c-0.019,0.021-0.027,0.046-0.042,0.068  c-0.016,0.024-0.037,0.043-0.049,0.07l-0.7,1.597c-0.001,0.002,0,0.005-0.001,0.007c-0.012,0.028-0.013,0.061-0.02,0.091  c-0.007,0.034-0.02,0.069-0.02,0.104c0,0.003-0.001,0.005-0.001,0.007l0.021,1.638v0.003c0,0,0,0,0,0.001l-0.021,3.228  c0,0.002,0.001,0.003,0.001,0.005s-0.001,0.003-0.001,0.005l0.021,1.684c0,0.02,0.01,0.039,0.013,0.059  c0.006,0.046,0.011,0.094,0.029,0.135v0.001l0.7,1.598c0.004,0.01,0.015,0.014,0.02,0.023c0.022,0.043,0.043,0.087,0.079,0.123  l1.356,1.399c0.014,0.015,0.033,0.021,0.048,0.033c0.017,0.014,0.028,0.032,0.047,0.044l1.903,1.182  c0.012,0.007,0.025,0.005,0.037,0.011c0.021,0.011,0.038,0.028,0.061,0.036L44.19,27.6c0.017,0.006,0.033,0.005,0.05,0.009  c0.013,0.003,0.023,0.012,0.037,0.014l2.603,0.416c0.026,0.004,0.053,0.006,0.079,0.006l0,0h2.691l0,0  c0.026,0,0.053-0.002,0.079-0.006l2.603-0.416c0.016-0.003,0.028-0.013,0.043-0.017c0.018-0.004,0.034-0.003,0.051-0.009  l2.319-0.854c0.019-0.007,0.031-0.021,0.049-0.03c0.012-0.006,0.024-0.003,0.036-0.01l1.925-1.159  c0.022-0.014,0.036-0.035,0.056-0.051c0.018-0.015,0.038-0.021,0.054-0.038l1.334-1.443c0.034-0.037,0.054-0.08,0.075-0.123  c0.004-0.009,0.014-0.013,0.018-0.021l0.678-1.595c0.018-0.042,0.022-0.089,0.028-0.136c0.003-0.021,0.013-0.041,0.013-0.062l0,0  v-4.922v-0.001v-0.001v-1.639c0-0.001,0-0.002,0-0.003c-0.001-0.035-0.014-0.07-0.021-0.105c-0.007-0.029-0.008-0.062-0.02-0.089  c-0.001-0.002,0-0.003-0.001-0.004l-0.686-1.565l17.493,9.24l-1.047-0.159c-0.014-0.002-0.024,0.003-0.037,0.002  c-0.014-0.001-0.024-0.008-0.038-0.008H71.94c-0.014,0-0.025,0.007-0.038,0.008c-0.016,0.001-0.029-0.004-0.045-0.001l-2.603,0.438  c-0.015,0.003-0.026,0.012-0.042,0.016c-0.015,0.004-0.029,0.002-0.044,0.007L66.85,24.12c-0.016,0.006-0.025,0.018-0.039,0.024  c-0.016,0.007-0.033,0.008-0.049,0.017l-1.902,1.137c-0.021,0.013-0.035,0.033-0.054,0.049c-0.018,0.014-0.039,0.021-0.056,0.039  l-1.355,1.444c-0.021,0.022-0.03,0.051-0.047,0.075c-0.016,0.024-0.036,0.044-0.048,0.071l-0.678,1.595  c-0.019,0.042-0.022,0.089-0.028,0.136c-0.003,0.021-0.013,0.041-0.013,0.062l0,0v1.685v3.237v1.641  c0,0.001,0.001,0.002,0.001,0.003c0,0.035,0.013,0.07,0.021,0.105c0.007,0.029,0.008,0.062,0.02,0.089  c0.001,0.002,0.001,0.003,0.001,0.004l0.7,1.597c0.005,0.011,0.017,0.016,0.022,0.025c0.021,0.04,0.039,0.082,0.071,0.116  l1.356,1.444c0.016,0.017,0.037,0.023,0.055,0.038c0.02,0.016,0.033,0.036,0.055,0.05l1.926,1.137  c0.012,0.007,0.024,0.004,0.036,0.01c0.019,0.009,0.031,0.023,0.05,0.03l2.342,0.832c0.016,0.006,0.031,0.005,0.047,0.009  c0.014,0.003,0.023,0.012,0.037,0.014l2.603,0.438c0.028,0.005,0.056,0.007,0.083,0.007l0,0c0.002,0,0.006,0,0.008,0l2.713-0.044  c0.002,0,0.004-0.001,0.006-0.001c0.02-0.001,0.04-0.002,0.061-0.005l2.604-0.394c0.015-0.002,0.025-0.011,0.039-0.014  c0.018-0.005,0.036-0.003,0.055-0.01l2.34-0.832c0.022-0.008,0.039-0.025,0.06-0.036c0.013-0.006,0.026-0.003,0.038-0.011  l1.882-1.181c0.02-0.013,0.03-0.031,0.048-0.046c0.017-0.014,0.036-0.02,0.051-0.035l1.356-1.444  c0.033-0.035,0.053-0.078,0.073-0.119c0.006-0.01,0.016-0.014,0.021-0.023l0.699-1.597c0-0.001,0-0.001,0.001-0.002  c0.014-0.032,0.016-0.069,0.021-0.104c0.007-0.031,0.019-0.062,0.02-0.092c0-0.001,0-0.002,0-0.003v-4.871c0-0.001,0-0.001,0-0.001  v-0.006c0-0.001-0.001-0.002-0.001-0.003c0-0.002,0.001-0.003,0.001-0.004l-0.021-1.685c-0.001-0.064-0.014-0.131-0.042-0.194  l-0.671-1.528l12.342,6.519L53.532,63.467c-0.007-0.082-0.026-0.164-0.075-0.238c-0.153-0.23-0.463-0.292-0.693-0.139l-0.072,0.048  L4.293,37.608l12.981-9.222L16.738,28.949z M46.582,7.567l4.143,2.188l-0.908-0.16c-0.014-0.005-0.032-0.004-0.047-0.008  l-0.076-0.014c-0.01-0.002-0.02,0.002-0.03,0c-0.022-0.001-0.041-0.01-0.065-0.008l-2.713,0.044c-0.012,0-0.022,0.007-0.034,0.008  c-0.013,0.001-0.024-0.004-0.037-0.002l-2.603,0.415c-0.015,0.003-0.027,0.012-0.042,0.016s-0.029,0.001-0.043,0.006l-2.032,0.703  L46.582,7.567z M56.178,24.724l-1.826,1.1l-2.222,0.817l-2.522,0.403h-2.606l-2.524-0.403l-2.266-0.798l-1.806-1.12l-1.249-1.289  l-0.624-1.424l-0.021-1.579l0.008-1.134l1.206,1.283c0.016,0.017,0.036,0.023,0.054,0.037c0.018,0.015,0.03,0.034,0.05,0.047  l1.903,1.159c0.012,0.007,0.025,0.005,0.038,0.011c0.021,0.011,0.038,0.027,0.061,0.035l2.362,0.81  c0.015,0.005,0.03,0.004,0.044,0.008c0.011,0.002,0.02,0.01,0.031,0.012l2.603,0.459c0.029,0.006,0.058,0.008,0.086,0.008  c0,0,0,0,0,0c0.002,0,0.005,0,0.008,0l2.691-0.043c0.001,0,0.003-0.001,0.004-0.001c0.022,0,0.045-0.002,0.067-0.005l2.603-0.416  c0.014-0.002,0.024-0.011,0.038-0.015c0.016-0.004,0.032-0.002,0.048-0.008l2.318-0.81c0.024-0.008,0.041-0.025,0.062-0.037  c0.013-0.006,0.026-0.003,0.039-0.011l1.924-1.203c0.021-0.013,0.032-0.032,0.05-0.047c0.017-0.014,0.036-0.02,0.05-0.035  l1.148-1.224v2.662l-0.604,1.421L56.178,24.724z M44.412,11.012l2.527-0.403l2.629-0.042l2.513,0.443l2.256,0.779l1.8,1.097  l1.25,1.31l0.623,1.423v1.435l-0.604,1.442l-1.228,1.309l-1.824,1.14l-2.219,0.774l-2.531,0.405l-2.606,0.041l-2.517-0.443  l-2.272-0.779l-1.799-1.095l-1.251-1.332l-0.625-1.427l-0.019-1.43l0.623-1.421l1.232-1.333l1.797-1.115L44.412,11.012z   M81.224,37.938l-1.783,1.119l-2.239,0.796l-2.521,0.381l-2.636,0.043l-2.517-0.423l-2.249-0.8l-1.825-1.077l-1.248-1.329  l-0.624-1.423V33.69v-1.167l1.192,1.27c0.016,0.017,0.037,0.023,0.055,0.038c0.018,0.014,0.029,0.033,0.049,0.045l1.924,1.181  c0.012,0.007,0.024,0.004,0.036,0.01c0.021,0.011,0.036,0.027,0.058,0.035l2.342,0.831c0.018,0.007,0.036,0.005,0.054,0.01  c0.014,0.003,0.024,0.012,0.038,0.014l2.604,0.395c0.024,0.004,0.049,0.006,0.074,0.006l0,0h2.713l0,0  c0.027,0,0.055-0.002,0.083-0.007l2.604-0.438c0.014-0.002,0.023-0.011,0.037-0.014c0.016-0.004,0.032-0.003,0.048-0.009l2.34-0.832  c0.021-0.008,0.035-0.023,0.055-0.033c0.012-0.006,0.024-0.003,0.035-0.01l1.883-1.137c0.02-0.013,0.032-0.032,0.05-0.046  c0.019-0.015,0.04-0.021,0.056-0.039l1.191-1.269v2.658l-0.622,1.421L81.224,37.938z M65.431,26.122l1.804-1.077l2.23-0.801  l2.518-0.423h2.635l2.518,0.382L79.381,25l1.824,1.119l1.25,1.292l0.624,1.422l0.019,1.475l-0.62,1.418l-1.253,1.333l-1.777,1.074  l-2.248,0.8l-2.522,0.424h-2.635l-2.518-0.382l-2.245-0.797l-1.821-1.117l-1.257-1.338l-0.62-1.376V28.87l0.604-1.421L65.431,26.122  z M53.979,64.376l42.181-29.958v28.174L53.979,92.614V64.376z M3.841,38.501L52.979,64.42v28.334L3.841,66.813V38.501z"/><path fill="#000000" d="M40.969,44.1c0,0.001,0,0.002,0,0.003v1.685v3.237v1.641c0,0.002,0.001,0.004,0.001,0.006  c0,0.032,0.013,0.063,0.02,0.095c0.007,0.034,0.009,0.069,0.022,0.1c0.001,0.002,0.001,0.004,0.001,0.006l0.722,1.598  c0.005,0.011,0.017,0.016,0.022,0.025c0.02,0.039,0.038,0.078,0.069,0.111l1.356,1.443c0.016,0.017,0.036,0.023,0.054,0.037  c0.018,0.015,0.03,0.034,0.05,0.047l1.903,1.159c0.012,0.007,0.025,0.005,0.038,0.011c0.021,0.011,0.038,0.027,0.061,0.035  l2.362,0.81c0.015,0.005,0.03,0.004,0.044,0.008c0.011,0.002,0.02,0.01,0.031,0.012l2.604,0.459  c0.029,0.006,0.058,0.008,0.086,0.008c0,0,0,0,0,0h2.69c0,0,0,0,0.001,0c0.027,0,0.057-0.002,0.086-0.008l2.603-0.459  c0.011-0.002,0.02-0.009,0.03-0.012c0.016-0.004,0.031-0.003,0.047-0.008l2.34-0.81c0.025-0.009,0.043-0.026,0.066-0.039  c0.012-0.006,0.025-0.004,0.037-0.011l1.904-1.203c0.019-0.013,0.03-0.031,0.047-0.046c0.016-0.012,0.033-0.018,0.047-0.032  l1.357-1.422c0.037-0.039,0.061-0.085,0.082-0.132c0.004-0.008,0.014-0.011,0.018-0.02l0.678-1.618  c0.023-0.057,0.031-0.115,0.034-0.173c0-0.007,0.004-0.014,0.004-0.021l0,0c0-0.001,0-0.002,0-0.003v-4.874c0-0.001,0-0.002,0-0.003  V44.06c0-0.003-0.001-0.005-0.002-0.008c0-0.034-0.013-0.067-0.021-0.101c-0.007-0.031-0.009-0.064-0.021-0.094  c-0.002-0.003-0.001-0.006-0.002-0.009l-0.723-1.554c-0.012-0.026-0.033-0.045-0.051-0.068c-0.014-0.021-0.021-0.046-0.041-0.065  l-1.355-1.422c-0.015-0.016-0.034-0.021-0.05-0.034c-0.017-0.014-0.026-0.032-0.046-0.044l-1.902-1.203  c-0.018-0.011-0.036-0.012-0.053-0.02c-0.019-0.009-0.032-0.023-0.051-0.03l-2.34-0.81c-0.015-0.005-0.029-0.002-0.044-0.006  s-0.026-0.013-0.042-0.016l-2.625-0.415c-0.014-0.002-0.025,0.003-0.039,0.002s-0.025-0.008-0.039-0.008H50.35  c-0.015,0-0.027,0.007-0.041,0.008c-0.016,0.002-0.03-0.003-0.046,0l-2.603,0.459c-0.013,0.002-0.023,0.011-0.036,0.014  c-0.014,0.004-0.027,0.001-0.041,0.006l-2.341,0.81c-0.018,0.007-0.031,0.021-0.048,0.028c-0.016,0.008-0.033,0.008-0.048,0.018  l-1.903,1.159c-0.02,0.012-0.031,0.03-0.048,0.045c-0.018,0.015-0.04,0.022-0.056,0.04l-1.334,1.422  c-0.018,0.02-0.025,0.043-0.04,0.064c-0.018,0.025-0.041,0.047-0.053,0.076l-0.7,1.597c0,0.001,0,0.002-0.001,0.004  c-0.012,0.027-0.013,0.06-0.02,0.089C40.982,44.029,40.97,44.064,40.969,44.1z M43.821,41.476l1.798-1.095l2.256-0.78l2.517-0.444  H53l2.545,0.402l2.242,0.776l1.805,1.14l1.254,1.315l0.642,1.381v1.47l-0.604,1.423l-1.249,1.329l-1.799,1.075l-2.254,0.8  l-2.518,0.444h-2.606l-2.524-0.402l-2.267-0.798l-1.804-1.12l-1.253-1.293l-0.642-1.419v-1.472l0.624-1.424L43.821,41.476z   M59.635,53.271l-1.803,1.14l-2.251,0.778l-2.517,0.444h-2.606l-2.521-0.444l-2.272-0.779l-1.799-1.095l-1.254-1.335l-0.643-1.423  v-1.533v-1.15l1.219,1.258c0.015,0.015,0.034,0.021,0.05,0.034c0.017,0.013,0.027,0.031,0.046,0.043l1.903,1.182  c0.012,0.007,0.025,0.004,0.037,0.011c0.021,0.011,0.038,0.028,0.061,0.036l2.362,0.831c0.017,0.006,0.033,0.005,0.05,0.009  c0.013,0.003,0.023,0.012,0.037,0.014l2.604,0.415c0.026,0.004,0.053,0.006,0.079,0.006l0,0h2.69c0,0,0,0,0.001,0  c0.027,0,0.057-0.002,0.086-0.008l2.603-0.459c0.013-0.002,0.022-0.011,0.034-0.014c0.016-0.004,0.031-0.002,0.047-0.008l2.34-0.831  c0.021-0.007,0.035-0.022,0.055-0.032c0.011-0.006,0.023-0.003,0.035-0.01l1.902-1.138c0.021-0.012,0.033-0.031,0.051-0.046  c0.02-0.015,0.041-0.022,0.058-0.04l1.17-1.245v2.639l-0.604,1.442L59.635,53.271z"/><text x="0" y="115" fill="#000000" font-size="5px" font-weight="bold" font-family="'Helvetica Neue', Helvetica, Arial-Unicode, Arial, Sans-serif">Created by Lluisa Iborra</text><text x="0" y="120" fill="#000000" font-size="5px" font-weight="bold" font-family="'Helvetica Neue', Helvetica, Arial-Unicode, Arial, Sans-serif">from the Noun Project</text></svg>